<svg width="216" height="138" viewBox="0 0 216 138" fill="none" xmlns="http://www.w3.org/2000/svg">
<mask id="path-1-inside-1_19277_1574" fill="white">
<path fill-rule="evenodd" clip-rule="evenodd" d="M0 10C0 4.47717 4.47715 0 10 0H206C211.523 0 216 4.47934 216 10.0022V63.3504C215.938 63.3867 215.879 63.4307 215.822 63.4828L210.797 68.116C210.368 68.5121 210.368 69.1904 210.797 69.5864L215.822 74.2196C215.879 74.2717 215.938 74.3157 216 74.352V127.702C216 133.225 211.523 137.704 206 137.704H10C4.47715 137.704 0 133.227 0 127.704V74.352C0.0617231 74.3157 0.121344 74.2717 0.177878 74.2196L5.20269 69.5864C5.63218 69.1904 5.63218 68.5121 5.20269 68.116L0.177878 63.4828C0.121344 63.4307 0.0617231 63.3867 0 63.3504V10Z"/>
</mask>
<path d="M216 63.3504L216.507 64.2125L217 63.9226V63.3504H216ZM215.822 63.4828L216.5 64.218L216.5 64.218L215.822 63.4828ZM210.797 68.116L211.475 68.8512V68.8512L210.797 68.116ZM210.797 69.5864L211.475 68.8512V68.8512L210.797 69.5864ZM215.822 74.2196L216.5 73.4844L216.5 73.4844L215.822 74.2196ZM216 74.352H217V73.7799L216.507 73.4899L216 74.352ZM0 74.352L-0.506788 73.4899L-1 73.7798V74.352H0ZM0.177879 74.2196L-0.499999 73.4844L-0.500024 73.4844L0.177879 74.2196ZM5.20269 69.5864L4.52481 68.8512H4.52481L5.20269 69.5864ZM5.20269 68.116L4.52481 68.8512H4.52481L5.20269 68.116ZM0.177879 63.4828L0.855756 62.7477H0.855754L0.177879 63.4828ZM0 63.3504H-1V63.9226L-0.506788 64.2125L0 63.3504ZM10 -1C3.92487 -1 -1 3.92488 -1 10H1C1 5.02945 5.02944 1 10 1V-1ZM206 -1H10V1H206V-1ZM217 10.0022C217 3.92734 212.075 -1 206 -1V1C210.97 1 215 5.03134 215 10.0022H217ZM217 63.3504V10.0022H215V63.3504H217ZM216.5 64.218C216.505 64.2136 216.507 64.2123 216.507 64.2125L215.493 62.4884C215.369 62.5612 215.253 62.6478 215.144 62.7477L216.5 64.218ZM211.475 68.8512L216.5 64.218L215.144 62.7477L210.119 67.3809L211.475 68.8512ZM211.475 68.8512V68.8512L210.119 67.3809C209.26 68.1729 209.26 69.5295 210.119 70.3216L211.475 68.8512ZM216.5 73.4844L211.475 68.8512L210.119 70.3216L215.144 74.9548L216.5 73.4844ZM216.507 73.4899C216.507 73.4901 216.505 73.4888 216.5 73.4844L215.144 74.9547C215.253 75.0546 215.369 75.1413 215.493 75.2141L216.507 73.4899ZM217 127.702V74.352H215V127.702H217ZM206 138.704C212.075 138.704 217 133.777 217 127.702H215C215 132.673 210.97 136.704 206 136.704V138.704ZM10 138.704H206V136.704H10V138.704ZM-1 127.704C-1 133.779 3.92487 138.704 10 138.704V136.704C5.02944 136.704 1 132.675 1 127.704H-1ZM-1 74.352V127.704H1V74.352H-1ZM-0.500024 73.4844C-0.504808 73.4888 -0.507167 73.4901 -0.506788 73.4899L0.506788 75.214C0.630613 75.1413 0.747497 75.0546 0.855781 74.9547L-0.500024 73.4844ZM4.52481 68.8512L-0.499999 73.4844L0.855756 74.9548L5.88057 70.3216L4.52481 68.8512ZM4.52481 68.8512L4.52481 68.8512L5.88056 70.3216C6.73956 69.5295 6.73956 68.1729 5.88056 67.3809L4.52481 68.8512ZM-0.499999 64.218L4.52481 68.8512L5.88057 67.3809L0.855756 62.7477L-0.499999 64.218ZM-0.506788 64.2125C-0.507189 64.2123 -0.504817 64.2136 -0.499997 64.218L0.855754 62.7477C0.747506 62.6479 0.630635 62.5612 0.506788 62.4884L-0.506788 64.2125ZM-1 10V63.3504H1V10H-1Z" fill="#35A2EC" mask="url(#path-1-inside-1_19277_1574)"/>
</svg>
