<?xml version="1.0" encoding="UTF-8" standalone="no"?>
<svg
   width="24"
   height="22"
   viewBox="0 0 24 22"
   fill="none"
   version="1.1"
   id="svg4"
   sodipodi:docname="like-active.svg"
   inkscape:version="1.2.2 (732a01da63, 2022-12-09)"
   xmlns:inkscape="http://www.inkscape.org/namespaces/inkscape"
   xmlns:sodipodi="http://sodipodi.sourceforge.net/DTD/sodipodi-0.dtd"
   xmlns="http://www.w3.org/2000/svg"
   xmlns:svg="http://www.w3.org/2000/svg">
  <defs
     id="defs8" />
  <sodipodi:namedview
     id="namedview6"
     pagecolor="#ffffff"
     bordercolor="#000000"
     borderopacity="0.25"
     inkscape:showpageshadow="2"
     inkscape:pageopacity="0.0"
     inkscape:pagecheckerboard="0"
     inkscape:deskcolor="#d1d1d1"
     showgrid="false"
     inkscape:zoom="38.045455"
     inkscape:cx="12.011947"
     inkscape:cy="11.013142"
     inkscape:window-width="1920"
     inkscape:window-height="1017"
     inkscape:window-x="-8"
     inkscape:window-y="-8"
     inkscape:window-maximized="1"
     inkscape:current-layer="svg4" />
  <g
     id="path2">
    <path
       style="color:#000000;fill:#c5e4f9;stroke-width:2;stroke-linecap:round;stroke-linejoin:round;-inkscape-stroke:none"
       d="M 20.8401,3.60987 C 20.3294,3.09888 19.7229,2.69352 19.0555,2.41696 18.388,2.14039 17.6726,1.99805 16.9501,1.99805 c -0.7225,0 -1.4379,0.14234 -2.1053,0.41891 -0.6675,0.27656 -1.2739,0.68192 -1.7847,1.19291 l -1.06,1.06 -1.06,-1.06 C 9.90843,2.57818 8.50915,1.99858 7.05012,1.99858 c -1.45903,0 -2.85831,0.5796 -3.89,1.61129 -1.03169,1.03169 -1.61129,2.43097 -1.61129,3.89 0,1.45904 0.5796,2.85833 1.61129,3.89003 l 1.06,1.06 7.77998,7.78 7.78,-7.78 1.06,-1.06 c 0.511,-0.5108 0.9164,-1.1172 1.1929,-1.78467 0.2766,-0.66746 0.4189,-1.38287 0.4189,-2.10536 0,-0.72249 -0.1423,-1.43789 -0.4189,-2.10535 C 21.7565,4.72706 21.3511,4.12063 20.8401,3.60987 Z"
       id="path182" />
    <path
       style="color:#000000;fill:#1390e5;stroke-linecap:round;stroke-linejoin:round;-inkscape-stroke:none"
       d="M 7.0507812,0.99804688 C 5.3269195,0.99804688 3.6720798,1.683389 2.453125,2.9023438 1.2341702,4.1212985 0.54882813,5.7761382 0.54882812,7.5 c 10e-9,1.7238699 0.68534388,3.378691 1.90429688,4.597656 l 1.0605469,1.058594 7.7792971,7.78125 a 1.0001,1.0001 0 0 0 1.414062,0 l 7.779297,-7.78125 1.060547,-1.058594 c 0.60384,-0.603603 1.083347,-1.320459 1.410156,-2.1093747 0.326912,-0.788866 0.494141,-1.634487 0.494141,-2.4882813 0,-0.8537943 -0.167231,-1.6994186 -0.494141,-2.4882813 C 22.630226,4.2228246 22.150754,3.5059392 21.546875,2.9023438 20.943264,2.2983901 20.226214,1.8190179 19.4375,1.4921875 18.648666,1.1653445 17.803058,0.99804687 16.949219,0.99804688 c -0.85384,0 -1.69755,0.16727142 -2.486328,0.49414062 -0.788866,0.3268445 -1.505756,0.8063127 -2.109375,1.4101563 L 12,3.2558594 11.646484,2.9023438 C 10.427545,1.683381 8.774643,0.99804687 7.0507812,0.99804688 Z m 0,2.00000002 c 1.1941954,0 2.3372419,0.4739442 3.1816408,1.3183593 l 1.060547,1.0605469 a 1.0001,1.0001 0 0 0 1.414062,0 l 1.060547,-1.0605469 c 0.41798,-0.4181353 0.914805,-0.7502875 1.460938,-0.9765624 0.54602,-0.2262703 1.129544,-0.3417969 1.720703,-0.3417969 0.591159,0 1.176491,0.1155004 1.722656,0.3417969 0.546085,0.226289 1.043149,0.5585371 1.460937,0.9765624 0.41812,0.4179236 0.750368,0.914913 0.976563,1.4609375 0.226289,0.5460561 0.341797,1.1314721 0.341797,1.7226563 0,0.5911842 -0.115509,1.1766035 -0.341797,1.7226563 -0.22619,0.5460228 -0.558403,1.0429417 -0.976563,1.4609377 L 19.072266,11.742188 12,18.816406 4.9277344,11.742188 3.8671875,10.683594 C 3.0227626,9.8391607 2.5488281,8.6942071 2.5488281,7.5 c 0,-1.1941953 0.4739362,-2.3391706 1.3183594,-3.1835938 C 4.7116107,3.4719831 5.8565859,2.9980469 7.0507812,2.9980469 Z"
       id="path179" />
  </g>
</svg>
