<svg width="216" height="138" viewBox="0 0 216 138" fill="none" xmlns="http://www.w3.org/2000/svg">
<path fill-rule="evenodd" clip-rule="evenodd" d="M10 0C4.47715 0 0 4.47715 0 10V62.6535C0.0701525 62.6948 0.137473 62.746 0.200476 62.8079L5.27287 67.7864C5.67224 68.1784 5.67224 68.8218 5.27287 69.2137L0.200474 74.1923C0.137471 74.2541 0.0701517 74.3053 0 74.3466V128C0 133.523 4.47715 138 10 138H206C211.523 138 216 133.521 216 127.998V74.3466C215.93 74.3053 215.863 74.2541 215.8 74.1923L210.727 69.2137C210.328 68.8218 210.328 68.1784 210.727 67.7864L215.8 62.8079C215.863 62.746 215.93 62.6948 216 62.6535V10.0019C216 4.4791 211.523 0 206 0H10Z" fill="white"/>
<g clip-path="url(#clip0_19277_1552)">
<mask id="mask0_19277_1552" style="mask-type:alpha" maskUnits="userSpaceOnUse" x="0" y="0" width="216" height="138">
<path fill-rule="evenodd" clip-rule="evenodd" d="M10 0C4.47715 0 0 4.47715 0 10V62.6535C0.0701519 62.6948 0.137472 62.746 0.200474 62.8079L5.27287 67.7864C5.67224 68.1784 5.67223 68.8218 5.27286 69.2137L0.200472 74.1923C0.13747 74.2541 0.0701511 74.3053 0 74.3466V128C0 133.523 4.47715 138 10 138H206C211.523 138 216 133.521 216 127.998V74.3466C215.93 74.3053 215.863 74.2541 215.8 74.1923L210.727 69.2137C210.328 68.8218 210.328 68.1784 210.727 67.7864L215.8 62.8079C215.863 62.746 215.93 62.6948 216 62.6535V10.0019C216 4.4791 211.523 0 206 0H10Z" fill="white"/>
</mask>
<g mask="url(#mask0_19277_1552)">
<path fill-rule="evenodd" clip-rule="evenodd" d="M-0.269043 0.421432L71.731 46.4214L82.4501 53.2697C82.6252 52.9858 82.805 52.7051 82.9892 52.4276L72.2693 45.5787L0.269346 -0.421265L-0.269043 0.421432ZM133.011 52.4275C133.195 52.7051 133.375 52.9858 133.55 53.2697L144.269 46.4214L216.269 0.421432L215.731 -0.421265L143.731 45.5787L133.011 52.4275ZM133.55 84.7304C133.375 85.0143 133.195 85.2951 133.011 85.5726L143.731 92.4214L215.731 138.421L216.269 137.579L144.269 91.5787L133.55 84.7304ZM82.9892 85.5726C82.805 85.2951 82.6252 85.0143 82.4501 84.7304L71.731 91.5787L-0.269043 137.579L0.269346 138.421L72.2693 92.4214L82.9892 85.5726Z" fill="#1390E5" fill-opacity="0.2"/>
</g>
<g clip-path="url(#clip1_19277_1552)">
<mask id="mask1_19277_1552" style="mask-type:alpha" maskUnits="userSpaceOnUse" x="88" y="49" width="40" height="40">
<circle cx="108" cy="69" r="20" fill="#C4C4C4"/>
</mask>
<g mask="url(#mask1_19277_1552)">
<path d="M98.5 75.5C98.5 76.6046 99.3954 77.5 100.5 77.5H102.5V60.5H100.5C99.3954 60.5 98.5 61.3954 98.5 62.5V75.5Z" fill="#1390E5" fill-opacity="0.2"/>
<path d="M117.5 62.5C117.5 61.3954 116.605 60.5 115.5 60.5H113.5V77.5H115.5C116.605 77.5 117.5 76.6046 117.5 75.5V62.5Z" fill="#1390E5" fill-opacity="0.2"/>
<path fill-rule="evenodd" clip-rule="evenodd" d="M100.5 61C99.6716 61 99 61.6716 99 62.5V64H102V61H100.5ZM103 61V68.5H113V61H103ZM114 61V64H117V62.5C117 61.6716 116.328 61 115.5 61H114ZM117 65H114V68.5H117V65ZM117 69.5H114V73H117V69.5ZM117 74H114V77H115.5C116.328 77 117 76.3284 117 75.5V74ZM113 77V69.5H103V77H113ZM102 77V74H99V75.5C99 76.3284 99.6716 77 100.5 77H102ZM99 73H102V69.5H99V73ZM99 68.5H102V65H99V68.5ZM98 62.5C98 61.1193 99.1193 60 100.5 60H115.5C116.881 60 118 61.1193 118 62.5V75.5C118 76.8807 116.881 78 115.5 78H100.5C99.1193 78 98 76.8807 98 75.5V62.5Z" fill="#1390E5"/>
</g>
</g>
</g>
<mask id="path-7-inside-1_19277_1552" fill="white">
<path fill-rule="evenodd" clip-rule="evenodd" d="M0 10C0 4.47717 4.47715 0 10 0H206C211.523 0 216 4.47934 216 10.0022V63.3504C215.938 63.3867 215.879 63.4307 215.822 63.4828L210.797 68.116C210.368 68.5121 210.368 69.1904 210.797 69.5864L215.822 74.2196C215.879 74.2717 215.938 74.3157 216 74.352V127.702C216 133.225 211.523 137.704 206 137.704H10C4.47715 137.704 0 133.227 0 127.704V74.352C0.0617232 74.3157 0.121344 74.2717 0.177879 74.2196L5.20269 69.5864C5.63218 69.1904 5.63218 68.5121 5.20269 68.116L0.177879 63.4828C0.121344 63.4307 0.0617231 63.3867 0 63.3504V10Z"/>
</mask>
<path d="M216 63.3504L216.507 64.2125L217 63.9226V63.3504H216ZM215.822 63.4828L216.5 64.218L216.5 64.218L215.822 63.4828ZM210.797 68.116L211.475 68.8512V68.8512L210.797 68.116ZM210.797 69.5864L211.475 68.8512V68.8512L210.797 69.5864ZM215.822 74.2196L216.5 73.4844L216.5 73.4844L215.822 74.2196ZM216 74.352H217V73.7799L216.507 73.4899L216 74.352ZM0 74.352L-0.506788 73.4899L-1 73.7798V74.352H0ZM0.177879 74.2196L-0.499999 73.4844L-0.500024 73.4844L0.177879 74.2196ZM5.20269 69.5864L4.52481 68.8512H4.52481L5.20269 69.5864ZM5.20269 68.116L4.52481 68.8512H4.52481L5.20269 68.116ZM0.177879 63.4828L0.855756 62.7477H0.855754L0.177879 63.4828ZM0 63.3504H-1V63.9226L-0.506788 64.2125L0 63.3504ZM10 -1C3.92487 -1 -1 3.92488 -1 10H1C1 5.02945 5.02944 1 10 1V-1ZM206 -1H10V1H206V-1ZM217 10.0022C217 3.92734 212.075 -1 206 -1V1C210.97 1 215 5.03134 215 10.0022H217ZM217 63.3504V10.0022H215V63.3504H217ZM216.5 64.218C216.505 64.2136 216.507 64.2123 216.507 64.2125L215.493 62.4884C215.369 62.5612 215.253 62.6478 215.144 62.7477L216.5 64.218ZM211.475 68.8512L216.5 64.218L215.144 62.7477L210.119 67.3809L211.475 68.8512ZM211.475 68.8512V68.8512L210.119 67.3809C209.26 68.1729 209.26 69.5295 210.119 70.3216L211.475 68.8512ZM216.5 73.4844L211.475 68.8512L210.119 70.3216L215.144 74.9548L216.5 73.4844ZM216.507 73.4899C216.507 73.4901 216.505 73.4888 216.5 73.4844L215.144 74.9547C215.253 75.0546 215.369 75.1413 215.493 75.2141L216.507 73.4899ZM217 127.702V74.352H215V127.702H217ZM206 138.704C212.075 138.704 217 133.777 217 127.702H215C215 132.673 210.97 136.704 206 136.704V138.704ZM10 138.704H206V136.704H10V138.704ZM-1 127.704C-1 133.779 3.92487 138.704 10 138.704V136.704C5.02944 136.704 1 132.675 1 127.704H-1ZM-1 74.352V127.704H1V74.352H-1ZM-0.500024 73.4844C-0.504808 73.4888 -0.507167 73.4901 -0.506788 73.4899L0.506788 75.214C0.630613 75.1413 0.747497 75.0546 0.855781 74.9547L-0.500024 73.4844ZM4.52481 68.8512L-0.499999 73.4844L0.855756 74.9548L5.88057 70.3216L4.52481 68.8512ZM4.52481 68.8512L4.52481 68.8512L5.88056 70.3216C6.73956 69.5295 6.73956 68.1729 5.88056 67.3809L4.52481 68.8512ZM-0.499999 64.218L4.52481 68.8512L5.88057 67.3809L0.855756 62.7477L-0.499999 64.218ZM-0.506788 64.2125C-0.507189 64.2123 -0.504817 64.2136 -0.499997 64.218L0.855754 62.7477C0.747506 62.6479 0.630635 62.5612 0.506788 62.4884L-0.506788 64.2125ZM-1 10V63.3504H1V10H-1Z" fill="#35A2EC" mask="url(#path-7-inside-1_19277_1552)"/>
<defs>
<clipPath id="clip0_19277_1552">
<rect width="216" height="138" fill="white"/>
</clipPath>
<clipPath id="clip1_19277_1552">
<rect width="40" height="40" fill="white" transform="translate(88 49)"/>
</clipPath>
</defs>
</svg>
